PathFileType	4	(X/Y/Z)	Patient4_TMGait_0pt2_03_left_08.trc.trc
DataRate	CameraRate	NumFrames	NumMarkers	Units	OrigDataRate	OrigDataStartFrame	OrigNumFrames
47.138047138047	47.138047138047	4	33	mm	47.138047138047	71	       141
Frame#	Time	Sacral			L.Shoulder			Chest			R.Shoulder			Neck			R.ASIS			L.ASIS			R.Thigh.Superior			R.Thigh.Lateral			R.Thigh.Inferior			R.Patella			L.Thigh.Superior			L.Thigh.Lateral			L.Thigh.Inferior			L.Patella			L.Shank.Superior			L.Shank.Lateral			L.Shank.Inferior			R.Shank.Superior			R.Shank.Lateral			R.Shank.Inferior			R.Heel			R.Midfoot.Superior			R.Midfoot.Lateral			R.Toe			L.Heel			L.Midfoot.Lateral			L.Midfoot.Superior			L.Toe			L.Elbow			L.Wrist			R.Elbow			R.Wrist			
		X1	Y1	Z1	X2	Y2	Z2	X3	Y3	Z3	X4	Y4	Z4	X5	Y5	Z5	X6	Y6	Z6	X7	Y7	Z7	X8	Y8	Z8	X9	Y9	Z9	X10	Y10	Z10	X11	Y11	Z11	X12	Y12	Z12	X13	Y13	Z13	X14	Y14	Z14	X15	Y15	Z15	X16	Y16	Z16	X17	Y17	Z17	X18	Y18	Z18	X19	Y19	Z19	X20	Y20	Z20	X21	Y21	Z21	X22	Y22	Z22	X23	Y23	Z23	X24	Y24	Z24	X25	Y25	Z25	X26	Y26	Z26	X27	Y27	Z27	X28	Y28	Z28	X29	Y29	Z29	X30	Y30	Z30	X31	Y31	Z31	X32	Y32	Z32	X33	Y33	Z33	

71	17.445000000000	746.583241717994	1023.619492697597	409.236076270904	992.549059340912	1436.497391529495	269.257197805328	1037.487837224935	1373.561099538440	453.889322614977	912.889869261161	1460.286084070979	593.716208424529	919.080732738776	1504.095301514973	413.708373864165	937.483094473146	955.293205424462	582.184680350678	989.134665812704	964.519736279368	312.666328608958	997.458345576324	761.274639969610	565.522413064636	922.489589046105	651.420312871981	632.226530780879	1008.819065995679	599.372070555590	561.620930864751	1021.402107513282	517.682499679737	578.354269893120	997.650952567844	739.465074403914	343.762507571659	905.397168994151	633.228241250489	262.085164152664	965.470769650758	549.509758021655	338.292584247687	955.776598676565	484.433145463602	345.791899483057	928.700013283379	414.386900158122	332.876572125056	842.668410860468	302.857853432013	271.759874909918	878.262005202451	190.425538826588	349.170127590943	1001.137292983417	428.470599730597	595.575569797674	938.337767868651	325.863949093181	669.452362188752	995.688224342500	228.549265179499	621.369707346952	881.549101966293	46.548791665741	615.858539297914	1052.682394187904	114.665756135428	637.648934906406	973.219306961998	43.698171633867	680.468113059608	1176.418999727297	73.427140805310	650.386424586682	742.927709132612	38.137242147517	381.486269189933	820.700179656884	34.750402843086	304.066226942634	903.182619503702	95.342831042148	336.081026667393	1032.876495361383	42.215414489293	313.193810262965	1143.014089811464	1145.889012319202	124.521309346035	1391.909706133309	1194.868115922285	162.884617474155	712.622973867296	1177.187199200487	669.707780039131	648.501623401396	922.331416129645	669.442659772769	
72	17.466214285714	748.026194416470	1022.354667110053	413.819591885454	990.907325438843	1435.668089777654	273.526167898544	1037.144180216811	1373.169181266165	457.933336756839	912.928000768782	1459.495263500817	598.375345872459	917.956506275746	1503.141956673545	418.036597846854	939.187474657061	953.077239663256	585.808212128478	990.339041731172	964.284314324559	316.259938557663	997.224218035038	757.823937720054	568.959509434951	919.793560424547	648.220059946059	633.767059449107	1006.772676950203	596.448279367428	563.865966100457	1017.062898364508	515.237935354009	579.619295068741	996.764472923885	738.063200301229	345.510517050546	902.365299344144	633.561632787824	263.664036950758	961.332000394069	548.671285931313	339.192247615425	950.815705398366	484.220545923990	346.458256432859	923.878265865491	414.639950820818	333.458062450949	837.815644233276	303.223369322337	272.125775644985	873.746660078987	190.580546481901	349.212789792696	997.799326166172	425.773379953963	596.575253682174	934.852658449429	322.508051332423	669.010073479390	993.244281654825	225.963743137175	620.892039510689	879.845935661360	45.057367511244	613.548506309387	1050.855491393651	111.928413016475	636.244731765819	970.917743903673	41.773779171995	678.733186524122	1174.096083585036	69.964347660185	649.476538370927	738.626652321246	38.104513001388	381.474668869778	816.394290668613	34.700854387225	304.050653416354	898.876437186791	95.308586177295	336.029982233267	1028.578980956370	42.201602194137	313.182474717333	1142.873443857867	1145.435240368463	129.172551994504	1390.912149260322	1198.409903395493	166.928349258381	715.861322199043	1174.326400891354	675.952492362874	654.100124854964	918.814214504995	676.696659641226	
73	17.487428571429	749.759473373158	1020.999519810654	418.817119500997	989.039012182997	1434.969903121975	278.255370140411	1036.920508538618	1372.808707713708	462.330966985735	913.227828168872	1458.518221983319	603.627896945495	916.808361780427	1502.166337206878	422.968368616200	941.464091922510	950.856178852563	589.566284457488	991.773267005198	964.162118742328	319.965884530375	997.588082250610	754.407925119082	572.277163977997	917.828132947230	645.139835353972	635.273153445539	1005.287626042989	593.554717413562	565.952384785916	1013.408066866004	512.583312727565	580.869188690074	996.103780770883	736.675768199537	347.333126810516	899.444067574721	633.934343352629	265.437248316233	957.373530576072	547.873206461421	340.204741171568	946.020338754971	483.996799625907	347.219563414453	919.159961065353	414.934756670008	334.150707066370	832.960183415406	303.702693483659	272.599026360584	869.265672096901	190.778909886185	349.265491546442	994.627519377997	422.932689848274	597.442581786775	931.034424984328	319.357295564719	668.455038528602	989.833237077613	223.318407825429	620.199854889607	876.178236541382	44.142122634777	611.148044836829	1047.356120059541	109.132797480234	634.533187757041	966.689779279899	40.226309770151	676.918962238829	1170.000883243612	66.009307908419	648.288051406975	734.323504249248	38.097520149839	381.457381221335	812.087703565448	34.669275051517	304.047366585643	894.582280252006	95.288811850299	335.963833248854	1024.275878942485	42.175822670693	313.164775745029	1141.545057469362	1144.307730836796	134.304296762770	1389.122773649188	1199.627700784119	171.174561690784	719.751188574916	1171.074778072648	683.179690772709	660.712100573839	914.882445051466	685.258035703875	
74	17.508642857143	751.713522031590	1019.678467740045	424.154988614142	987.087978311547	1434.502299550121	283.391003000815	1036.856223034298	1372.546586361255	467.038703715921	913.792560766097	1457.449380999724	609.376841059522	915.704578178674	1501.261148689757	428.434758905010	944.214039360374	948.820667352842	593.460145757435	993.377927276358	964.173928833885	323.792274094431	998.435750735173	751.192485540658	575.526381480252	916.565753150861	642.378041269538	636.921585873644	1004.226171690256	590.831855393451	567.955765125308	1010.405369271234	509.927985409075	582.175106194396	995.619805676375	735.365347598200	349.369089761354	896.700508181633	634.350781784322	267.474798791402	953.682332264223	547.148980622696	341.428356065705	941.490464257556	483.768407890867	348.171151532707	914.638175589184	415.261903951824	335.024645227607	828.168672516368	304.314586840543	273.241003980266	864.858977412548	191.017908144275	349.359355662466	991.709218071448	420.147937288955	598.288457830456	927.213747544081	316.492845748826	668.032151325915	985.879057349717	220.727977515458	619.468277993110	871.250999936248	43.563740854498	608.936695832782	1042.786451750302	106.458373824144	632.742426056768	961.295646439420	39.001177978496	675.255220498540	1164.867041724131	62.020257141127	646.999817762463	730.025330743768	38.133771837193	381.437952831443	807.788607058186	34.671348162068	304.064289978466	890.311567863978	95.288856145391	335.892633012274	1019.973098189725	42.129843001704	313.143130732256	1139.044666481611	1142.574711167953	139.858575347435	1386.604526634329	1198.544824820772	175.590690551132	724.187420288257	1167.633038446113	691.215956176403	668.179378437709	910.769075218714	694.922023600561	
